<?xml version="1.0" encoding="utf-8"?>
<!-- Generator: Adobe Illustrator 24.0.2, SVG Export Plug-In . SVG Version: 6.00 Build 0)  -->
<!DOCTYPE svg PUBLIC "-//W3C//DTD SVG 1.1//EN" "http://www.w3.org/Graphics/SVG/1.1/DTD/svg11.dtd" [
	<!ENTITY ns_extend "http://ns.adobe.com/Extensibility/1.0/">
	<!ENTITY ns_ai "http://ns.adobe.com/AdobeIllustrator/10.0/">
	<!ENTITY ns_graphs "http://ns.adobe.com/Graphs/1.0/">
	<!ENTITY ns_vars "http://ns.adobe.com/Variables/1.0/">
	<!ENTITY ns_imrep "http://ns.adobe.com/ImageReplacement/1.0/">
	<!ENTITY ns_sfw "http://ns.adobe.com/SaveForWeb/1.0/">
	<!ENTITY ns_custom "http://ns.adobe.com/GenericCustomNamespace/1.0/">
	<!ENTITY ns_adobe_xpath "http://ns.adobe.com/XPath/1.0/">
]>
<svg version="1.1" id="Layer_1" xmlns:x="&ns_extend;" xmlns:i="&ns_ai;" xmlns:graph="&ns_graphs;"
	 xmlns="http://www.w3.org/2000/svg" xmlns:xlink="http://www.w3.org/1999/xlink" x="0px" y="0px" width="299px" height="299px"
	 viewBox="0 0 299 299" style="enable-background:new 0 0 299 299;" xml:space="preserve">
<style type="text/css">
	.st0{fill:#EE7664;}
</style>
<metadata>
	<sfw  xmlns="&ns_sfw;">
		<slices></slices>
		<sliceSourceBounds  bottomLeftOrigin="true" height="269.1" width="226.1" x="57.3" y="552.6"></sliceSourceBounds>
	</sfw>
</metadata>
<g>
	<path class="st0" d="M224.7,219c-5-10.1-20-24.4-16-20.5l0,0l0,0L149.5,140v0l0,0l0,0v0h0v0l0,0l0,0v0l0,28c0,14.2-0.6,22.4,6.2,36
		c5,10.1,20,24.4,16,20.5l31.6,31.3l0,0l27.6,27.3v0l0,0l0,0v0h0v0l0,0l0,0v0l0-28C230.9,240.7,231.5,232.6,224.7,219z"/>
	<path class="st0" d="M149.5,80.9L149.5,80.9L149.5,80.9L149.5,80.9L149.5,80.9L149.5,80.9L149.5,80.9L149.5,80.9L149.5,80.9
		L149.5,80.9L149.5,80.9L149.5,80.9L149.5,80.9L149.5,80.9L149.5,80.9L149.5,80.9L149.5,80.9l51.3,50.7
		c14.8,14.5,21.9,33.8,21.2,52.9c2.3,2.1,4.6,4.8,7.3,8c5.9,6.8,10.1,12.7,12.7,17.9c3,6.1,5,11.6,6.2,16.7
		c24.2-42.4,17.9-97.2-18.7-133.1L149.5,15v0l0,0l0,0v0h0v0l0,0l0,0l0,0l0,0v0h0v0l0,0l0,0v0L69.6,94.1
		c-43.9,43-44.2,113.1-0.8,156.5c0.3,0.3,0.5,0.5,0.8,0.8c22,22,51,32.8,79.9,32.7h0h0h0c15.6,0.1,31.1-3,45.6-9.3l-24.5-24.2
		c-6.9,2-14,3.1-21.1,3h0h0h0c-18.6,0.1-37.2-6.9-51.3-21c-0.2-0.2-0.3-0.3-0.5-0.5c-27.9-27.9-27.6-72.8,0.5-100.4L149.5,80.9z"/>
</g>
</svg>
